<svg t="1715873902876" class="icon" viewBox="0 0 1074 1024" version="1.1" xmlns="http://www.w3.org/2000/svg" p-id="11208" width="200" height="200"><path d="M979.503254 925.943031l-430.419866 96.500969a48.828985 48.828985 0 0 1-10.849996 1.194c-0.47 0-0.868-0.217-1.302-0.217s-0.832 0.217-1.301999 0.217a48.828985 48.828985 0 0 1-10.850997-1.194l-430.419865-96.499969A108.869966 108.869966 0 0 1 0.31956 810.200067V115.743284A107.712966 107.712966 0 0 1 100.652529 0.00032a48.322985 48.322985 0 0 1 10.850996 1.194l425.391867 95.37997 425.389867-95.37997A48.322985 48.322985 0 0 1 973.137256 0.00032a107.712966 107.712966 0 0 1 100.333969 115.742964V810.200067a108.869966 108.869966 0 0 1-93.967971 115.742964z m-492.666846-740.609769l-385.45988-86.408973a63.80298 63.80298 0 0 0-3.037999 16.927995v694.456783a26.619992 26.619992 0 0 0 6.329998 19.205994h3.832999a13.056996 13.056996 0 0 1 3.109999 0.47L486.837408 914.080034V185.334262z m488.832847-69.480978a31.61199 31.61199 0 0 0-4.231999-16.673995l-384.266879 86.155973V913.970034l375.223882-84.093973a48.322985 48.322985 0 0 1 10.850997-1.194 176.145945 176.145945 0 0 1 2.567999-18.301994V115.924284z m-291.997909 560.629825l195.532939-48.756985v97.657969l-195.532939 48.755985v-97.476969z m0-194.954939l195.532939-48.756985v97.259969l-195.532939 48.756985V481.13017z m0-194.95494l195.532939-48.755984v97.657969L683.671346 384.2302v-97.47797zM391.637438 384.0502l-195.532939-48.756985v-97.657969L391.637438 286.392231v97.476969z m0 194.953939l-195.532939-48.756985V432.770185L391.637438 481.52717v97.657969z m0 194.953939l-195.532939-48.755985v-97.657969L391.637438 676.300109v97.477969z" p-id="11209"></path></svg>
