<svg t="1715873693292" class="icon" viewBox="0 0 1024 1024" version="1.1" xmlns="http://www.w3.org/2000/svg" p-id="5107" width="200" height="200"><path d="M832 1024H192a192 192 0 0 1-192-192V0h768v64h128v64h128v704a192 192 0 0 1-192 192zM640 128H128v704c0 35.392 28.608 64 64 64h448V128z m320 64h-64v608a32 32 0 0 1-64 0V128h-64v672c0 52.992 43.008 96 96 96s96-43.008 96-96V192zM192 768h192v64H192v-64z m0-128h256v64H192v-64z m384 64h-64v-64h64v64z m-128-192h128v64h-128v-64zM192 192h384v256H192V192z m192 384H192v-64h192v64z" p-id="5108"></path></svg>
